<mxfile host="app.diagrams.net" modified="2023-10-02T18:59:50.187Z" agent="Mozilla/5.0 (Windows NT 10.0; Win64; x64) AppleWebKit/537.36 (KHTML, like Gecko) Chrome/116.0.0.0 Safari/537.36 OPR/102.0.0.0" etag="coUyVowrwdT9Wwgfl_Vt" version="22.0.0" type="github">
  <diagram name="Page-1" id="ad2ugWRQlucctlsAGpi_">
    <mxGraphModel dx="962" dy="1784" grid="1" gridSize="10" guides="1" tooltips="1" connect="1" arrows="1" fold="1" page="1" pageScale="1" pageWidth="900" pageHeight="900" math="0" shadow="0">
      <root>
        <mxCell id="0" />
        <mxCell id="1" parent="0" />
      </root>
    </mxGraphModel>
  </diagram>
</mxfile>
